# xmcd
#
# Track frame offsets:
#	150
#	13575
#	29228
#	41805
#	57158
#	69744
#	83994
#	96539
#	113034
#	125135
#	141230
#	152845
#	167769
#	183519
#	195465
#	210067
#	222138
#	236595
#	250014
#	259217
#
# Disc length: 3589 seconds
#
# Revision: 1
# Processed by: cddbd v1.5.2PL0 Copyright (c) Steve Scherf et al.
# Submitted via: EasyCDDAExtractor 13.0.0.1
#
DISCID=270e0314
DTITLE=Zico and Zeca - As 20 Mais
DYEAR=2005
DGENRE=Country
TTITLE0=A Enxada E A Caneta
TTITLE1=Tristeza Do Jeca
TTITLE2=Dona Jandira
TTITLE3=Besta Bailarina
TTITLE4=Luz Vermelha
TTITLE5=Folha Seca
TTITLE6=Pingo D'agua
TTITLE7=Mineiro Não Faz Feio
TTITLE8=Minha Prima
TTITLE9=Canarinho Dobrado
TTITLE10=A Carta
TTITLE11=Velho Peão
TTITLE12=Prova De Amor
TTITLE13=Maldita Hora
TTITLE14=Caboclinha Sertaneja
TTITLE15=Casinha Amarela
TTITLE16=Capelinha De Chico Mineiro
TTITLE17=Ai Moreninha
TTITLE18=Engano De Carteiro
TTITLE19=Adeus Morena
EXTD=
EXTT0=
EXTT1=
EXTT2=
EXTT3=
EXTT4=
EXTT5=
EXTT6=
EXTT7=
EXTT8=
EXTT9=
EXTT10=
EXTT11=
EXTT12=
EXTT13=
EXTT14=
EXTT15=
EXTT16=
EXTT17=
EXTT18=
EXTT19=
PLAYORDER=
